<svg width="270" height="59" viewBox="0 0 270 59" fill="none" xmlns="http://www.w3.org/2000/svg">
<path fill-rule="evenodd" clip-rule="evenodd" d="M270 33.7238C266.978 32.2519 263.833 29.7398 260.454 27.04C253.353 21.3678 245.215 14.8669 235 15.4431C224.11 16.0573 217.287 21.4257 210.857 26.4841C203.961 31.9091 197.519 36.9777 187 35.4431C177.625 34.0754 170.581 25.9178 163.622 17.8588C155.492 8.44393 147.478 -0.836476 136 1.00001C126.13 2.57923 121.178 12.2395 115.791 22.7485C109.551 34.9216 102.728 48.2334 87 51.4431C71.1679 54.6741 65.3689 45.8395 59.4782 36.8652C54.4652 29.2281 49.3857 21.4897 38 21C26.7331 20.5154 22.4063 29.5067 18.4002 37.8316C14.2986 46.3548 10.5331 54.1795 0 50.4214V56.6959C4.69578 57.9518 8.90273 57.5354 12.6735 55.3656C17.1293 52.8016 19.5766 49.1698 23.2191 41.6517C23.2631 41.5609 23.3945 41.2883 23.5612 40.9424L23.5614 40.9421C23.906 40.2271 24.4017 39.1988 24.5898 38.8127C29.0518 29.6534 31.992 26.7471 37.7422 26.9945C44.6089 27.2898 47.9103 30.1801 54.2557 39.8431L54.6227 40.4021C59.313 47.5458 61.8821 50.7481 66.2096 53.7437C72.1614 57.8635 79.3574 59.1265 88.1998 57.3219C96.0643 55.7169 102.507 51.9075 107.937 46.1235C112.067 41.7245 115.259 36.7399 119.182 29.2578C119.707 28.2569 121.093 25.5605 121.878 24.0325L121.878 24.0321C122.162 23.4797 122.368 23.08 122.425 22.9686C128.176 11.8751 131.746 7.75701 136.948 6.92465C143.429 5.88765 148.349 9.3724 158.293 20.869C158.559 21.1764 158.834 21.4948 159.38 22.1265C164.568 28.1333 167.232 30.9787 170.715 33.8967C175.63 38.0152 180.613 40.5748 186.134 41.3802C196.213 42.8507 203.134 40.05 212.464 32.8438C213.217 32.2626 215.873 30.1743 215.739 30.2792C223.512 24.1998 228.216 21.8352 235.338 21.4335C241.227 21.1014 246.449 23.6469 254.479 29.9562L254.545 30.0093C255.115 30.4631 259.162 33.6878 260.375 34.6106C262.738 36.4093 264.695 37.7239 266.648 38.7507C267.772 39.3418 268.89 39.8271 270 40.1992V33.7238Z" fill="#56CAFF"/>
<mask id="mask0" mask-type="alpha" maskUnits="userSpaceOnUse" x="0" y="0" width="270" height="59">
<path fill-rule="evenodd" clip-rule="evenodd" d="M270 33.7238C266.978 32.2519 263.833 29.7398 260.454 27.04C253.353 21.3678 245.215 14.8669 235 15.4431C224.11 16.0573 217.287 21.4257 210.857 26.4841C203.961 31.9091 197.519 36.9777 187 35.4431C177.625 34.0754 170.581 25.9178 163.622 17.8588C155.492 8.44393 147.478 -0.836476 136 1.00001C126.13 2.57923 121.178 12.2395 115.791 22.7485C109.551 34.9216 102.728 48.2334 87 51.4431C71.1679 54.6741 65.3689 45.8395 59.4782 36.8652C54.4652 29.2281 49.3857 21.4897 38 21C26.7331 20.5154 22.4063 29.5067 18.4002 37.8316C14.2986 46.3548 10.5331 54.1795 0 50.4214V56.6959C4.69578 57.9518 8.90273 57.5354 12.6735 55.3656C17.1293 52.8016 19.5766 49.1698 23.2191 41.6517C23.2631 41.5609 23.3945 41.2883 23.5612 40.9424L23.5614 40.9421C23.906 40.2271 24.4017 39.1988 24.5898 38.8127C29.0518 29.6534 31.992 26.7471 37.7422 26.9945C44.6089 27.2898 47.9103 30.1801 54.2557 39.8431L54.6227 40.4021C59.313 47.5458 61.8821 50.7481 66.2096 53.7437C72.1614 57.8635 79.3574 59.1265 88.1998 57.3219C96.0643 55.7169 102.507 51.9075 107.937 46.1235C112.067 41.7245 115.259 36.7399 119.182 29.2578C119.707 28.2569 121.093 25.5605 121.878 24.0325L121.878 24.0321C122.162 23.4797 122.368 23.08 122.425 22.9686C128.176 11.8751 131.746 7.75701 136.948 6.92465C143.429 5.88765 148.349 9.3724 158.293 20.869C158.559 21.1764 158.834 21.4948 159.38 22.1265C164.568 28.1333 167.232 30.9787 170.715 33.8967C175.63 38.0152 180.613 40.5748 186.134 41.3802C196.213 42.8507 203.134 40.05 212.464 32.8438C213.217 32.2626 215.873 30.1743 215.739 30.2792C223.512 24.1998 228.216 21.8352 235.338 21.4335C241.227 21.1014 246.449 23.6469 254.479 29.9562L254.545 30.0093C255.115 30.4631 259.162 33.6878 260.375 34.6106C262.738 36.4093 264.695 37.7239 266.648 38.7507C267.772 39.3418 268.89 39.8271 270 40.1992V33.7238Z" fill="white"/>
</mask>
<g mask="url(#mask0)">
<rect y="-9" width="190" height="101" fill="white"/>
</g>
</svg>
