<svg width="188" height="52" viewBox="0 0 188 52" fill="none" xmlns="http://www.w3.org/2000/svg">
<path fill-rule="evenodd" clip-rule="evenodd" d="M4 2C4 3.10457 3.10457 4 2 4C0.89543 4 0 3.10457 0 2C0 0.89543 0.89543 0 2 0C3.10457 0 4 0.89543 4 2ZM2 20C3.10457 20 4 19.1046 4 18C4 16.8954 3.10457 16 2 16C0.89543 16 0 16.8954 0 18C0 19.1046 0.89543 20 2 20ZM18 20C19.1046 20 20 19.1046 20 18C20 16.8954 19.1046 16 18 16C16.8954 16 16 16.8954 16 18C16 19.1046 16.8954 20 18 20ZM36 18C36 19.1046 35.1046 20 34 20C32.8954 20 32 19.1046 32 18C32 16.8954 32.8954 16 34 16C35.1046 16 36 16.8954 36 18ZM50 20C51.1046 20 52 19.1046 52 18C52 16.8954 51.1046 16 50 16C48.8954 16 48 16.8954 48 18C48 19.1046 48.8954 20 50 20ZM68 18C68 19.1046 67.1046 20 66 20C64.8954 20 64 19.1046 64 18C64 16.8954 64.8954 16 66 16C67.1046 16 68 16.8954 68 18ZM82 20C83.1046 20 84 19.1046 84 18C84 16.8954 83.1046 16 82 16C80.8954 16 80 16.8954 80 18C80 19.1046 80.8954 20 82 20ZM106 4C107.105 4 108 3.10457 108 2C108 0.89543 107.105 0 106 0C104.895 0 104 0.89543 104 2C104 3.10457 104.895 4 106 4ZM108 18C108 19.1046 107.105 20 106 20C104.895 20 104 19.1046 104 18C104 16.8954 104.895 16 106 16C107.105 16 108 16.8954 108 18ZM124 18C124 19.1046 123.105 20 122 20C120.895 20 120 19.1046 120 18C120 16.8954 120.895 16 122 16C123.105 16 124 16.8954 124 18ZM138 20C139.105 20 140 19.1046 140 18C140 16.8954 139.105 16 138 16C136.895 16 136 16.8954 136 18C136 19.1046 136.895 20 138 20ZM156 18C156 19.1046 155.105 20 154 20C152.895 20 152 19.1046 152 18C152 16.8954 152.895 16 154 16C155.105 16 156 16.8954 156 18ZM170 20C171.105 20 172 19.1046 172 18C172 16.8954 171.105 16 170 16C168.895 16 168 16.8954 168 18C168 19.1046 168.895 20 170 20ZM188 18C188 19.1046 187.105 20 186 20C184.895 20 184 19.1046 184 18C184 16.8954 184.895 16 186 16C187.105 16 188 16.8954 188 18ZM124 2C124 3.10457 123.105 4 122 4C120.895 4 120 3.10457 120 2C120 0.89543 120.895 0 122 0C123.105 0 124 0.89543 124 2ZM138 4C139.105 4 140 3.10457 140 2C140 0.89543 139.105 0 138 0C136.895 0 136 0.89543 136 2C136 3.10457 136.895 4 138 4ZM156 2C156 3.10457 155.105 4 154 4C152.895 4 152 3.10457 152 2C152 0.89543 152.895 0 154 0C155.105 0 156 0.89543 156 2ZM170 4C171.105 4 172 3.10457 172 2C172 0.89543 171.105 0 170 0C168.895 0 168 0.89543 168 2C168 3.10457 168.895 4 170 4ZM188 2C188 3.10457 187.105 4 186 4C184.895 4 184 3.10457 184 2C184 0.89543 184.895 0 186 0C187.105 0 188 0.89543 188 2ZM20 2C20 3.10457 19.1046 4 18 4C16.8954 4 16 3.10457 16 2C16 0.89543 16.8954 0 18 0C19.1046 0 20 0.89543 20 2ZM10 36C11.1046 36 12 35.1046 12 34C12 32.8954 11.1046 32 10 32C8.89543 32 8 32.8954 8 34C8 35.1046 8.89543 36 10 36ZM12 50C12 51.1046 11.1046 52 10 52C8.89543 52 8 51.1046 8 50C8 48.8954 8.89543 48 10 48C11.1046 48 12 48.8954 12 50ZM28 50C28 51.1046 27.1046 52 26 52C24.8954 52 24 51.1046 24 50C24 48.8954 24.8954 48 26 48C27.1046 48 28 48.8954 28 50ZM42 52C43.1046 52 44 51.1046 44 50C44 48.8954 43.1046 48 42 48C40.8954 48 40 48.8954 40 50C40 51.1046 40.8954 52 42 52ZM60 50C60 51.1046 59.1046 52 58 52C56.8954 52 56 51.1046 56 50C56 48.8954 56.8954 48 58 48C59.1046 48 60 48.8954 60 50ZM74 52C75.1046 52 76 51.1046 76 50C76 48.8954 75.1046 48 74 48C72.8954 48 72 48.8954 72 50C72 51.1046 72.8954 52 74 52ZM92 50C92 51.1046 91.1046 52 90 52C88.8954 52 88 51.1046 88 50C88 48.8954 88.8954 48 90 48C91.1046 48 92 48.8954 92 50ZM28 34C28 35.1046 27.1046 36 26 36C24.8954 36 24 35.1046 24 34C24 32.8954 24.8954 32 26 32C27.1046 32 28 32.8954 28 34ZM42 36C43.1046 36 44 35.1046 44 34C44 32.8954 43.1046 32 42 32C40.8954 32 40 32.8954 40 34C40 35.1046 40.8954 36 42 36ZM60 34C60 35.1046 59.1046 36 58 36C56.8954 36 56 35.1046 56 34C56 32.8954 56.8954 32 58 32C59.1046 32 60 32.8954 60 34ZM74 36C75.1046 36 76 35.1046 76 34C76 32.8954 75.1046 32 74 32C72.8954 32 72 32.8954 72 34C72 35.1046 72.8954 36 74 36ZM92 34C92 35.1046 91.1046 36 90 36C88.8954 36 88 35.1046 88 34C88 32.8954 88.8954 32 90 32C91.1046 32 92 32.8954 92 34ZM36 2C36 3.10457 35.1046 4 34 4C32.8954 4 32 3.10457 32 2C32 0.89543 32.8954 0 34 0C35.1046 0 36 0.89543 36 2ZM106 36C107.105 36 108 35.1046 108 34C108 32.8954 107.105 32 106 32C104.895 32 104 32.8954 104 34C104 35.1046 104.895 36 106 36ZM108 50C108 51.1046 107.105 52 106 52C104.895 52 104 51.1046 104 50C104 48.8954 104.895 48 106 48C107.105 48 108 48.8954 108 50ZM124 50C124 51.1046 123.105 52 122 52C120.895 52 120 51.1046 120 50C120 48.8954 120.895 48 122 48C123.105 48 124 48.8954 124 50ZM138 52C139.105 52 140 51.1046 140 50C140 48.8954 139.105 48 138 48C136.895 48 136 48.8954 136 50C136 51.1046 136.895 52 138 52ZM156 50C156 51.1046 155.105 52 154 52C152.895 52 152 51.1046 152 50C152 48.8954 152.895 48 154 48C155.105 48 156 48.8954 156 50ZM170 52C171.105 52 172 51.1046 172 50C172 48.8954 171.105 48 170 48C168.895 48 168 48.8954 168 50C168 51.1046 168.895 52 170 52ZM188 50C188 51.1046 187.105 52 186 52C184.895 52 184 51.1046 184 50C184 48.8954 184.895 48 186 48C187.105 48 188 48.8954 188 50ZM124 34C124 35.1046 123.105 36 122 36C120.895 36 120 35.1046 120 34C120 32.8954 120.895 32 122 32C123.105 32 124 32.8954 124 34ZM138 36C139.105 36 140 35.1046 140 34C140 32.8954 139.105 32 138 32C136.895 32 136 32.8954 136 34C136 35.1046 136.895 36 138 36ZM156 34C156 35.1046 155.105 36 154 36C152.895 36 152 35.1046 152 34C152 32.8954 152.895 32 154 32C155.105 32 156 32.8954 156 34ZM170 36C171.105 36 172 35.1046 172 34C172 32.8954 171.105 32 170 32C168.895 32 168 32.8954 168 34C168 35.1046 168.895 36 170 36ZM188 34C188 35.1046 187.105 36 186 36C184.895 36 184 35.1046 184 34C184 32.8954 184.895 32 186 32C187.105 32 188 32.8954 188 34ZM52 2C52 3.10457 51.1046 4 50 4C48.8954 4 48 3.10457 48 2C48 0.89543 48.8954 0 50 0C51.1046 0 52 0.89543 52 2ZM66 4C67.1046 4 68 3.10457 68 2C68 0.89543 67.1046 0 66 0C64.8954 0 64 0.89543 64 2C64 3.10457 64.8954 4 66 4ZM84 2C84 3.10457 83.1046 4 82 4C80.8954 4 80 3.10457 80 2C80 0.89543 80.8954 0 82 0C83.1046 0 84 0.89543 84 2Z" fill="#333333"/>
</svg>
