<svg width="558" height="721" viewBox="0 0 558 721" fill="none" xmlns="http://www.w3.org/2000/svg">
<g filter="url(#filter0_d)">
<path d="M394.312 50.4961C563.23 156.762 586.457 516.777 513.266 559.234C440.074 601.691 402.177 539.089 335.98 553.09C269.784 567.091 273.153 611.94 210.18 623.34C147.206 634.74 146.216 576.391 79.1523 599.582C12.0887 622.773 -42.3203 710.656 -42.3203 710.656L-42.3203 40.9844C-42.3203 40.9844 225.395 -55.7695 394.312 50.4961Z" fill="#C1E4F4"/>
<path d="M394.312 50.4961C563.23 156.762 586.457 516.777 513.266 559.234C440.074 601.691 402.177 539.089 335.98 553.09C269.784 567.091 273.153 611.94 210.18 623.34C147.206 634.74 146.216 576.391 79.1523 599.582C12.0887 622.773 -42.3203 710.656 -42.3203 710.656L-42.3203 40.9844C-42.3203 40.9844 225.395 -55.7695 394.312 50.4961Z" stroke="black"/>
</g>
<defs>
<filter id="filter0_d" x="-46.8203" y="0.168213" width="603.891" height="720.246" filterUnits="userSpaceOnUse" color-interpolation-filters="sRGB">
<feFlood flood-opacity="0" result="BackgroundImageFix"/>
<feColorMatrix in="SourceAlpha" type="matrix" values="0 0 0 0 0 0 0 0 0 0 0 0 0 0 0 0 0 0 127 0"/>
<feOffset dy="4"/>
<feGaussianBlur stdDeviation="2"/>
<feColorMatrix type="matrix" values="0 0 0 0 0 0 0 0 0 0 0 0 0 0 0 0 0 0 0.25 0"/>
<feBlend mode="normal" in2="BackgroundImageFix" result="effect1_dropShadow"/>
<feBlend mode="normal" in="SourceGraphic" in2="effect1_dropShadow" result="shape"/>
</filter>
</defs>
</svg>
