<svg width="244" height="244" viewBox="0 0 244 244" fill="none" xmlns="http://www.w3.org/2000/svg">
<mask id="mask0" mask-type="alpha" maskUnits="userSpaceOnUse" x="0" y="0" width="244" height="244">
<path d="M122 244C189.379 244 244 189.379 244 122C244 54.6213 189.379 0 122 0C54.6213 0 0 54.6213 0 122C0 189.379 54.6213 244 122 244Z" fill="white"/>
</mask>
<g mask="url(#mask0)">
<path fill-rule="evenodd" clip-rule="evenodd" d="M60.5263 -5.55688C60.5263 -4.45232 59.6309 -3.55688 58.5263 -3.55688C57.4217 -3.55688 56.5263 -4.45232 56.5263 -5.55688C56.5263 -6.66145 57.4217 -7.55688 58.5263 -7.55688C59.6309 -7.55688 60.5263 -6.66145 60.5263 -5.55688ZM58.5263 12.4431C59.6309 12.4431 60.5263 11.5477 60.5263 10.4431C60.5263 9.33854 59.6309 8.44312 58.5263 8.44312C57.4217 8.44312 56.5263 9.33854 56.5263 10.4431C56.5263 11.5477 57.4217 12.4431 58.5263 12.4431ZM74.5263 12.4431C75.6309 12.4431 76.5263 11.5477 76.5263 10.4431C76.5263 9.33854 75.6309 8.44312 74.5263 8.44312C73.4217 8.44312 72.5263 9.33854 72.5263 10.4431C72.5263 11.5477 73.4217 12.4431 74.5263 12.4431ZM92.5263 10.4431C92.5263 11.5477 91.6309 12.4431 90.5263 12.4431C89.4217 12.4431 88.5263 11.5477 88.5263 10.4431C88.5263 9.33854 89.4217 8.44312 90.5263 8.44312C91.6309 8.44312 92.5263 9.33854 92.5263 10.4431ZM106.526 12.4431C107.631 12.4431 108.526 11.5477 108.526 10.4431C108.526 9.33854 107.631 8.44312 106.526 8.44312C105.422 8.44312 104.526 9.33854 104.526 10.4431C104.526 11.5477 105.422 12.4431 106.526 12.4431ZM124.526 10.4431C124.526 11.5477 123.631 12.4431 122.526 12.4431C121.422 12.4431 120.526 11.5477 120.526 10.4431C120.526 9.33854 121.422 8.44312 122.526 8.44312C123.631 8.44312 124.526 9.33854 124.526 10.4431ZM138.526 12.4431C139.631 12.4431 140.526 11.5477 140.526 10.4431C140.526 9.33854 139.631 8.44312 138.526 8.44312C137.422 8.44312 136.526 9.33854 136.526 10.4431C136.526 11.5477 137.422 12.4431 138.526 12.4431ZM162.526 -3.55688C163.631 -3.55688 164.526 -4.45232 164.526 -5.55688C164.526 -6.66145 163.631 -7.55688 162.526 -7.55688C161.422 -7.55688 160.526 -6.66145 160.526 -5.55688C160.526 -4.45232 161.422 -3.55688 162.526 -3.55688ZM164.526 10.4431C164.526 11.5477 163.631 12.4431 162.526 12.4431C161.422 12.4431 160.526 11.5477 160.526 10.4431C160.526 9.33854 161.422 8.44312 162.526 8.44312C163.631 8.44312 164.526 9.33854 164.526 10.4431ZM180.526 10.4431C180.526 11.5477 179.631 12.4431 178.526 12.4431C177.422 12.4431 176.526 11.5477 176.526 10.4431C176.526 9.33854 177.422 8.44312 178.526 8.44312C179.631 8.44312 180.526 9.33854 180.526 10.4431ZM194.526 12.4431C195.631 12.4431 196.526 11.5477 196.526 10.4431C196.526 9.33854 195.631 8.44312 194.526 8.44312C193.422 8.44312 192.526 9.33854 192.526 10.4431C192.526 11.5477 193.422 12.4431 194.526 12.4431ZM212.526 10.4431C212.526 11.5477 211.631 12.4431 210.526 12.4431C209.422 12.4431 208.526 11.5477 208.526 10.4431C208.526 9.33854 209.422 8.44312 210.526 8.44312C211.631 8.44312 212.526 9.33854 212.526 10.4431ZM226.526 12.4431C227.631 12.4431 228.526 11.5477 228.526 10.4431C228.526 9.33854 227.631 8.44312 226.526 8.44312C225.422 8.44312 224.526 9.33854 224.526 10.4431C224.526 11.5477 225.422 12.4431 226.526 12.4431ZM244.526 10.4431C244.526 11.5477 243.631 12.4431 242.526 12.4431C241.422 12.4431 240.526 11.5477 240.526 10.4431C240.526 9.33854 241.422 8.44312 242.526 8.44312C243.631 8.44312 244.526 9.33854 244.526 10.4431ZM180.526 -5.55688C180.526 -4.45232 179.631 -3.55688 178.526 -3.55688C177.422 -3.55688 176.526 -4.45232 176.526 -5.55688C176.526 -6.66145 177.422 -7.55688 178.526 -7.55688C179.631 -7.55688 180.526 -6.66145 180.526 -5.55688ZM194.526 -3.55688C195.631 -3.55688 196.526 -4.45232 196.526 -5.55688C196.526 -6.66145 195.631 -7.55688 194.526 -7.55688C193.422 -7.55688 192.526 -6.66145 192.526 -5.55688C192.526 -4.45232 193.422 -3.55688 194.526 -3.55688ZM212.526 -5.55688C212.526 -4.45232 211.631 -3.55688 210.526 -3.55688C209.422 -3.55688 208.526 -4.45232 208.526 -5.55688C208.526 -6.66145 209.422 -7.55688 210.526 -7.55688C211.631 -7.55688 212.526 -6.66145 212.526 -5.55688ZM226.526 -3.55688C227.631 -3.55688 228.526 -4.45232 228.526 -5.55688C228.526 -6.66145 227.631 -7.55688 226.526 -7.55688C225.422 -7.55688 224.526 -6.66145 224.526 -5.55688C224.526 -4.45232 225.422 -3.55688 226.526 -3.55688ZM244.526 -5.55688C244.526 -4.45232 243.631 -3.55688 242.526 -3.55688C241.422 -3.55688 240.526 -4.45232 240.526 -5.55688C240.526 -6.66145 241.422 -7.55688 242.526 -7.55688C243.631 -7.55688 244.526 -6.66145 244.526 -5.55688ZM76.5263 -5.55688C76.5263 -4.45232 75.6309 -3.55688 74.5263 -3.55688C73.4217 -3.55688 72.5263 -4.45232 72.5263 -5.55688C72.5263 -6.66145 73.4217 -7.55688 74.5263 -7.55688C75.6309 -7.55688 76.5263 -6.66145 76.5263 -5.55688ZM66.5263 28.4431C67.6309 28.4431 68.5263 27.5477 68.5263 26.4431C68.5263 25.3385 67.6309 24.4431 66.5263 24.4431C65.4217 24.4431 64.5263 25.3385 64.5263 26.4431C64.5263 27.5477 65.4217 28.4431 66.5263 28.4431ZM68.5263 42.4431C68.5263 43.5477 67.6309 44.4431 66.5263 44.4431C65.4217 44.4431 64.5263 43.5477 64.5263 42.4431C64.5263 41.3385 65.4217 40.4431 66.5263 40.4431C67.6309 40.4431 68.5263 41.3385 68.5263 42.4431ZM84.5263 42.4431C84.5263 43.5477 83.6309 44.4431 82.5263 44.4431C81.4217 44.4431 80.5263 43.5477 80.5263 42.4431C80.5263 41.3385 81.4217 40.4431 82.5263 40.4431C83.6309 40.4431 84.5263 41.3385 84.5263 42.4431ZM98.5263 44.4431C99.6309 44.4431 100.526 43.5477 100.526 42.4431C100.526 41.3385 99.6309 40.4431 98.5263 40.4431C97.4217 40.4431 96.5263 41.3385 96.5263 42.4431C96.5263 43.5477 97.4217 44.4431 98.5263 44.4431ZM116.526 42.4431C116.526 43.5477 115.631 44.4431 114.526 44.4431C113.422 44.4431 112.526 43.5477 112.526 42.4431C112.526 41.3385 113.422 40.4431 114.526 40.4431C115.631 40.4431 116.526 41.3385 116.526 42.4431ZM130.526 44.4431C131.631 44.4431 132.526 43.5477 132.526 42.4431C132.526 41.3385 131.631 40.4431 130.526 40.4431C129.422 40.4431 128.526 41.3385 128.526 42.4431C128.526 43.5477 129.422 44.4431 130.526 44.4431ZM148.526 42.4431C148.526 43.5477 147.631 44.4431 146.526 44.4431C145.422 44.4431 144.526 43.5477 144.526 42.4431C144.526 41.3385 145.422 40.4431 146.526 40.4431C147.631 40.4431 148.526 41.3385 148.526 42.4431ZM84.5263 26.4431C84.5263 27.5477 83.6309 28.4431 82.5263 28.4431C81.4217 28.4431 80.5263 27.5477 80.5263 26.4431C80.5263 25.3385 81.4217 24.4431 82.5263 24.4431C83.6309 24.4431 84.5263 25.3385 84.5263 26.4431ZM98.5263 28.4431C99.6309 28.4431 100.526 27.5477 100.526 26.4431C100.526 25.3385 99.6309 24.4431 98.5263 24.4431C97.4217 24.4431 96.5263 25.3385 96.5263 26.4431C96.5263 27.5477 97.4217 28.4431 98.5263 28.4431ZM116.526 26.4431C116.526 27.5477 115.631 28.4431 114.526 28.4431C113.422 28.4431 112.526 27.5477 112.526 26.4431C112.526 25.3385 113.422 24.4431 114.526 24.4431C115.631 24.4431 116.526 25.3385 116.526 26.4431ZM130.526 28.4431C131.631 28.4431 132.526 27.5477 132.526 26.4431C132.526 25.3385 131.631 24.4431 130.526 24.4431C129.422 24.4431 128.526 25.3385 128.526 26.4431C128.526 27.5477 129.422 28.4431 130.526 28.4431ZM148.526 26.4431C148.526 27.5477 147.631 28.4431 146.526 28.4431C145.422 28.4431 144.526 27.5477 144.526 26.4431C144.526 25.3385 145.422 24.4431 146.526 24.4431C147.631 24.4431 148.526 25.3385 148.526 26.4431ZM92.5263 -5.55688C92.5263 -4.45232 91.6309 -3.55688 90.5263 -3.55688C89.4217 -3.55688 88.5263 -4.45232 88.5263 -5.55688C88.5263 -6.66145 89.4217 -7.55688 90.5263 -7.55688C91.6309 -7.55688 92.5263 -6.66145 92.5263 -5.55688ZM162.526 28.4431C163.631 28.4431 164.526 27.5477 164.526 26.4431C164.526 25.3385 163.631 24.4431 162.526 24.4431C161.422 24.4431 160.526 25.3385 160.526 26.4431C160.526 27.5477 161.422 28.4431 162.526 28.4431ZM164.526 42.4431C164.526 43.5477 163.631 44.4431 162.526 44.4431C161.422 44.4431 160.526 43.5477 160.526 42.4431C160.526 41.3385 161.422 40.4431 162.526 40.4431C163.631 40.4431 164.526 41.3385 164.526 42.4431ZM180.526 42.4431C180.526 43.5477 179.631 44.4431 178.526 44.4431C177.422 44.4431 176.526 43.5477 176.526 42.4431C176.526 41.3385 177.422 40.4431 178.526 40.4431C179.631 40.4431 180.526 41.3385 180.526 42.4431ZM194.526 44.4431C195.631 44.4431 196.526 43.5477 196.526 42.4431C196.526 41.3385 195.631 40.4431 194.526 40.4431C193.422 40.4431 192.526 41.3385 192.526 42.4431C192.526 43.5477 193.422 44.4431 194.526 44.4431ZM212.526 42.4431C212.526 43.5477 211.631 44.4431 210.526 44.4431C209.422 44.4431 208.526 43.5477 208.526 42.4431C208.526 41.3385 209.422 40.4431 210.526 40.4431C211.631 40.4431 212.526 41.3385 212.526 42.4431ZM226.526 44.4431C227.631 44.4431 228.526 43.5477 228.526 42.4431C228.526 41.3385 227.631 40.4431 226.526 40.4431C225.422 40.4431 224.526 41.3385 224.526 42.4431C224.526 43.5477 225.422 44.4431 226.526 44.4431ZM244.526 42.4431C244.526 43.5477 243.631 44.4431 242.526 44.4431C241.422 44.4431 240.526 43.5477 240.526 42.4431C240.526 41.3385 241.422 40.4431 242.526 40.4431C243.631 40.4431 244.526 41.3385 244.526 42.4431ZM180.526 26.4431C180.526 27.5477 179.631 28.4431 178.526 28.4431C177.422 28.4431 176.526 27.5477 176.526 26.4431C176.526 25.3385 177.422 24.4431 178.526 24.4431C179.631 24.4431 180.526 25.3385 180.526 26.4431ZM194.526 28.4431C195.631 28.4431 196.526 27.5477 196.526 26.4431C196.526 25.3385 195.631 24.4431 194.526 24.4431C193.422 24.4431 192.526 25.3385 192.526 26.4431C192.526 27.5477 193.422 28.4431 194.526 28.4431ZM212.526 26.4431C212.526 27.5477 211.631 28.4431 210.526 28.4431C209.422 28.4431 208.526 27.5477 208.526 26.4431C208.526 25.3385 209.422 24.4431 210.526 24.4431C211.631 24.4431 212.526 25.3385 212.526 26.4431ZM226.526 28.4431C227.631 28.4431 228.526 27.5477 228.526 26.4431C228.526 25.3385 227.631 24.4431 226.526 24.4431C225.422 24.4431 224.526 25.3385 224.526 26.4431C224.526 27.5477 225.422 28.4431 226.526 28.4431ZM244.526 26.4431C244.526 27.5477 243.631 28.4431 242.526 28.4431C241.422 28.4431 240.526 27.5477 240.526 26.4431C240.526 25.3385 241.422 24.4431 242.526 24.4431C243.631 24.4431 244.526 25.3385 244.526 26.4431ZM108.526 -5.55688C108.526 -4.45232 107.631 -3.55688 106.526 -3.55688C105.422 -3.55688 104.526 -4.45232 104.526 -5.55688C104.526 -6.66145 105.422 -7.55688 106.526 -7.55688C107.631 -7.55688 108.526 -6.66145 108.526 -5.55688ZM122.526 -3.55688C123.631 -3.55688 124.526 -4.45232 124.526 -5.55688C124.526 -6.66145 123.631 -7.55688 122.526 -7.55688C121.422 -7.55688 120.526 -6.66145 120.526 -5.55688C120.526 -4.45232 121.422 -3.55688 122.526 -3.55688ZM140.526 -5.55688C140.526 -4.45232 139.631 -3.55688 138.526 -3.55688C137.422 -3.55688 136.526 -4.45232 136.526 -5.55688C136.526 -6.66145 137.422 -7.55688 138.526 -7.55688C139.631 -7.55688 140.526 -6.66145 140.526 -5.55688Z" fill="#333333"/>
<path fill-rule="evenodd" clip-rule="evenodd" d="M60.5263 58.4431C60.5263 59.5477 59.6309 60.4431 58.5263 60.4431C57.4217 60.4431 56.5263 59.5477 56.5263 58.4431C56.5263 57.3385 57.4217 56.4431 58.5263 56.4431C59.6309 56.4431 60.5263 57.3385 60.5263 58.4431ZM58.5263 76.4431C59.6309 76.4431 60.5263 75.5477 60.5263 74.4431C60.5263 73.3385 59.6309 72.4431 58.5263 72.4431C57.4217 72.4431 56.5263 73.3385 56.5263 74.4431C56.5263 75.5477 57.4217 76.4431 58.5263 76.4431ZM74.5263 76.4431C75.6309 76.4431 76.5263 75.5477 76.5263 74.4431C76.5263 73.3385 75.6309 72.4431 74.5263 72.4431C73.4217 72.4431 72.5263 73.3385 72.5263 74.4431C72.5263 75.5477 73.4217 76.4431 74.5263 76.4431ZM92.5263 74.4431C92.5263 75.5477 91.6309 76.4431 90.5263 76.4431C89.4217 76.4431 88.5263 75.5477 88.5263 74.4431C88.5263 73.3385 89.4217 72.4431 90.5263 72.4431C91.6309 72.4431 92.5263 73.3385 92.5263 74.4431ZM106.526 76.4431C107.631 76.4431 108.526 75.5477 108.526 74.4431C108.526 73.3385 107.631 72.4431 106.526 72.4431C105.422 72.4431 104.526 73.3385 104.526 74.4431C104.526 75.5477 105.422 76.4431 106.526 76.4431ZM124.526 74.4431C124.526 75.5477 123.631 76.4431 122.526 76.4431C121.422 76.4431 120.526 75.5477 120.526 74.4431C120.526 73.3385 121.422 72.4431 122.526 72.4431C123.631 72.4431 124.526 73.3385 124.526 74.4431ZM138.526 76.4431C139.631 76.4431 140.526 75.5477 140.526 74.4431C140.526 73.3385 139.631 72.4431 138.526 72.4431C137.422 72.4431 136.526 73.3385 136.526 74.4431C136.526 75.5477 137.422 76.4431 138.526 76.4431ZM162.526 60.4431C163.631 60.4431 164.526 59.5477 164.526 58.4431C164.526 57.3385 163.631 56.4431 162.526 56.4431C161.422 56.4431 160.526 57.3385 160.526 58.4431C160.526 59.5477 161.422 60.4431 162.526 60.4431ZM164.526 74.4431C164.526 75.5477 163.631 76.4431 162.526 76.4431C161.422 76.4431 160.526 75.5477 160.526 74.4431C160.526 73.3385 161.422 72.4431 162.526 72.4431C163.631 72.4431 164.526 73.3385 164.526 74.4431ZM180.526 74.4431C180.526 75.5477 179.631 76.4431 178.526 76.4431C177.422 76.4431 176.526 75.5477 176.526 74.4431C176.526 73.3385 177.422 72.4431 178.526 72.4431C179.631 72.4431 180.526 73.3385 180.526 74.4431ZM194.526 76.4431C195.631 76.4431 196.526 75.5477 196.526 74.4431C196.526 73.3385 195.631 72.4431 194.526 72.4431C193.422 72.4431 192.526 73.3385 192.526 74.4431C192.526 75.5477 193.422 76.4431 194.526 76.4431ZM212.526 74.4431C212.526 75.5477 211.631 76.4431 210.526 76.4431C209.422 76.4431 208.526 75.5477 208.526 74.4431C208.526 73.3385 209.422 72.4431 210.526 72.4431C211.631 72.4431 212.526 73.3385 212.526 74.4431ZM226.526 76.4431C227.631 76.4431 228.526 75.5477 228.526 74.4431C228.526 73.3385 227.631 72.4431 226.526 72.4431C225.422 72.4431 224.526 73.3385 224.526 74.4431C224.526 75.5477 225.422 76.4431 226.526 76.4431ZM244.526 74.4431C244.526 75.5477 243.631 76.4431 242.526 76.4431C241.422 76.4431 240.526 75.5477 240.526 74.4431C240.526 73.3385 241.422 72.4431 242.526 72.4431C243.631 72.4431 244.526 73.3385 244.526 74.4431ZM180.526 58.4431C180.526 59.5477 179.631 60.4431 178.526 60.4431C177.422 60.4431 176.526 59.5477 176.526 58.4431C176.526 57.3385 177.422 56.4431 178.526 56.4431C179.631 56.4431 180.526 57.3385 180.526 58.4431ZM194.526 60.4431C195.631 60.4431 196.526 59.5477 196.526 58.4431C196.526 57.3385 195.631 56.4431 194.526 56.4431C193.422 56.4431 192.526 57.3385 192.526 58.4431C192.526 59.5477 193.422 60.4431 194.526 60.4431ZM212.526 58.4431C212.526 59.5477 211.631 60.4431 210.526 60.4431C209.422 60.4431 208.526 59.5477 208.526 58.4431C208.526 57.3385 209.422 56.4431 210.526 56.4431C211.631 56.4431 212.526 57.3385 212.526 58.4431ZM226.526 60.4431C227.631 60.4431 228.526 59.5477 228.526 58.4431C228.526 57.3385 227.631 56.4431 226.526 56.4431C225.422 56.4431 224.526 57.3385 224.526 58.4431C224.526 59.5477 225.422 60.4431 226.526 60.4431ZM244.526 58.4431C244.526 59.5477 243.631 60.4431 242.526 60.4431C241.422 60.4431 240.526 59.5477 240.526 58.4431C240.526 57.3385 241.422 56.4431 242.526 56.4431C243.631 56.4431 244.526 57.3385 244.526 58.4431ZM76.5263 58.4431C76.5263 59.5477 75.6309 60.4431 74.5263 60.4431C73.4217 60.4431 72.5263 59.5477 72.5263 58.4431C72.5263 57.3385 73.4217 56.4431 74.5263 56.4431C75.6309 56.4431 76.5263 57.3385 76.5263 58.4431ZM66.5263 92.4431C67.6309 92.4431 68.5263 91.5477 68.5263 90.4431C68.5263 89.3385 67.6309 88.4431 66.5263 88.4431C65.4217 88.4431 64.5263 89.3385 64.5263 90.4431C64.5263 91.5477 65.4217 92.4431 66.5263 92.4431ZM68.5263 106.443C68.5263 107.548 67.6309 108.443 66.5263 108.443C65.4217 108.443 64.5263 107.548 64.5263 106.443C64.5263 105.339 65.4217 104.443 66.5263 104.443C67.6309 104.443 68.5263 105.339 68.5263 106.443ZM84.5263 106.443C84.5263 107.548 83.6309 108.443 82.5263 108.443C81.4217 108.443 80.5263 107.548 80.5263 106.443C80.5263 105.339 81.4217 104.443 82.5263 104.443C83.6309 104.443 84.5263 105.339 84.5263 106.443ZM98.5263 108.443C99.6309 108.443 100.526 107.548 100.526 106.443C100.526 105.339 99.6309 104.443 98.5263 104.443C97.4217 104.443 96.5263 105.339 96.5263 106.443C96.5263 107.548 97.4217 108.443 98.5263 108.443ZM116.526 106.443C116.526 107.548 115.631 108.443 114.526 108.443C113.422 108.443 112.526 107.548 112.526 106.443C112.526 105.339 113.422 104.443 114.526 104.443C115.631 104.443 116.526 105.339 116.526 106.443ZM130.526 108.443C131.631 108.443 132.526 107.548 132.526 106.443C132.526 105.339 131.631 104.443 130.526 104.443C129.422 104.443 128.526 105.339 128.526 106.443C128.526 107.548 129.422 108.443 130.526 108.443ZM148.526 106.443C148.526 107.548 147.631 108.443 146.526 108.443C145.422 108.443 144.526 107.548 144.526 106.443C144.526 105.339 145.422 104.443 146.526 104.443C147.631 104.443 148.526 105.339 148.526 106.443ZM84.5263 90.4431C84.5263 91.5477 83.6309 92.4431 82.5263 92.4431C81.4217 92.4431 80.5263 91.5477 80.5263 90.4431C80.5263 89.3385 81.4217 88.4431 82.5263 88.4431C83.6309 88.4431 84.5263 89.3385 84.5263 90.4431ZM98.5263 92.4431C99.6309 92.4431 100.526 91.5477 100.526 90.4431C100.526 89.3385 99.6309 88.4431 98.5263 88.4431C97.4217 88.4431 96.5263 89.3385 96.5263 90.4431C96.5263 91.5477 97.4217 92.4431 98.5263 92.4431ZM116.526 90.4431C116.526 91.5477 115.631 92.4431 114.526 92.4431C113.422 92.4431 112.526 91.5477 112.526 90.4431C112.526 89.3385 113.422 88.4431 114.526 88.4431C115.631 88.4431 116.526 89.3385 116.526 90.4431ZM130.526 92.4431C131.631 92.4431 132.526 91.5477 132.526 90.4431C132.526 89.3385 131.631 88.4431 130.526 88.4431C129.422 88.4431 128.526 89.3385 128.526 90.4431C128.526 91.5477 129.422 92.4431 130.526 92.4431ZM148.526 90.4431C148.526 91.5477 147.631 92.4431 146.526 92.4431C145.422 92.4431 144.526 91.5477 144.526 90.4431C144.526 89.3385 145.422 88.4431 146.526 88.4431C147.631 88.4431 148.526 89.3385 148.526 90.4431ZM92.5263 58.4431C92.5263 59.5477 91.6309 60.4431 90.5263 60.4431C89.4217 60.4431 88.5263 59.5477 88.5263 58.4431C88.5263 57.3385 89.4217 56.4431 90.5263 56.4431C91.6309 56.4431 92.5263 57.3385 92.5263 58.4431ZM162.526 92.4431C163.631 92.4431 164.526 91.5477 164.526 90.4431C164.526 89.3385 163.631 88.4431 162.526 88.4431C161.422 88.4431 160.526 89.3385 160.526 90.4431C160.526 91.5477 161.422 92.4431 162.526 92.4431ZM164.526 106.443C164.526 107.548 163.631 108.443 162.526 108.443C161.422 108.443 160.526 107.548 160.526 106.443C160.526 105.339 161.422 104.443 162.526 104.443C163.631 104.443 164.526 105.339 164.526 106.443ZM180.526 106.443C180.526 107.548 179.631 108.443 178.526 108.443C177.422 108.443 176.526 107.548 176.526 106.443C176.526 105.339 177.422 104.443 178.526 104.443C179.631 104.443 180.526 105.339 180.526 106.443ZM194.526 108.443C195.631 108.443 196.526 107.548 196.526 106.443C196.526 105.339 195.631 104.443 194.526 104.443C193.422 104.443 192.526 105.339 192.526 106.443C192.526 107.548 193.422 108.443 194.526 108.443ZM212.526 106.443C212.526 107.548 211.631 108.443 210.526 108.443C209.422 108.443 208.526 107.548 208.526 106.443C208.526 105.339 209.422 104.443 210.526 104.443C211.631 104.443 212.526 105.339 212.526 106.443ZM226.526 108.443C227.631 108.443 228.526 107.548 228.526 106.443C228.526 105.339 227.631 104.443 226.526 104.443C225.422 104.443 224.526 105.339 224.526 106.443C224.526 107.548 225.422 108.443 226.526 108.443ZM244.526 106.443C244.526 107.548 243.631 108.443 242.526 108.443C241.422 108.443 240.526 107.548 240.526 106.443C240.526 105.339 241.422 104.443 242.526 104.443C243.631 104.443 244.526 105.339 244.526 106.443ZM180.526 90.4431C180.526 91.5477 179.631 92.4431 178.526 92.4431C177.422 92.4431 176.526 91.5477 176.526 90.4431C176.526 89.3385 177.422 88.4431 178.526 88.4431C179.631 88.4431 180.526 89.3385 180.526 90.4431ZM194.526 92.4431C195.631 92.4431 196.526 91.5477 196.526 90.4431C196.526 89.3385 195.631 88.4431 194.526 88.4431C193.422 88.4431 192.526 89.3385 192.526 90.4431C192.526 91.5477 193.422 92.4431 194.526 92.4431ZM212.526 90.4431C212.526 91.5477 211.631 92.4431 210.526 92.4431C209.422 92.4431 208.526 91.5477 208.526 90.4431C208.526 89.3385 209.422 88.4431 210.526 88.4431C211.631 88.4431 212.526 89.3385 212.526 90.4431ZM226.526 92.4431C227.631 92.4431 228.526 91.5477 228.526 90.4431C228.526 89.3385 227.631 88.4431 226.526 88.4431C225.422 88.4431 224.526 89.3385 224.526 90.4431C224.526 91.5477 225.422 92.4431 226.526 92.4431ZM244.526 90.4431C244.526 91.5477 243.631 92.4431 242.526 92.4431C241.422 92.4431 240.526 91.5477 240.526 90.4431C240.526 89.3385 241.422 88.4431 242.526 88.4431C243.631 88.4431 244.526 89.3385 244.526 90.4431ZM108.526 58.4431C108.526 59.5477 107.631 60.4431 106.526 60.4431C105.422 60.4431 104.526 59.5477 104.526 58.4431C104.526 57.3385 105.422 56.4431 106.526 56.4431C107.631 56.4431 108.526 57.3385 108.526 58.4431ZM122.526 60.4431C123.631 60.4431 124.526 59.5477 124.526 58.4431C124.526 57.3385 123.631 56.4431 122.526 56.4431C121.422 56.4431 120.526 57.3385 120.526 58.4431C120.526 59.5477 121.422 60.4431 122.526 60.4431ZM140.526 58.4431C140.526 59.5477 139.631 60.4431 138.526 60.4431C137.422 60.4431 136.526 59.5477 136.526 58.4431C136.526 57.3385 137.422 56.4431 138.526 56.4431C139.631 56.4431 140.526 57.3385 140.526 58.4431Z" fill="#333333"/>
</g>
</svg>
